<svg id="Layer_1" data-name="Layer 1" xmlns="http://www.w3.org/2000/svg" viewBox="0 0 198.635 184.369"><defs><style>.cls-1{fill:#2a2a2a;}.cls-2{fill:#1f233b;stroke:#1f233b;stroke-miterlimit:10;}</style></defs><title>windIcon</title><path class="cls-1" d="M156.409,193.735v.03q21.982,0,43.963,0c5.5,0,11.036.419,16.477-.133a46.486,46.486,0,0,0,30.8-15.608,45.97,45.97,0,0,0,11.852-31.29,45.18,45.18,0,0,0-3.581-18.225,47.235,47.235,0,0,0-13.98-18.617C231.662,101.71,219.787,98.5,206.732,99.9a34.983,34.983,0,0,0-7.762,1.716c-1.864.653-2.7.209-3.279-1.467a48.921,48.921,0,0,0-42.551-33.244c-12.123-.83-23.4,1.853-33.3,9.4-12.257,9.351-19.288,21.44-20,36.994-.23,5-.251,4.994-5.231,5.338a9.5,9.5,0,0,0-1.134.145c-11.271,2.164-20.232,7.877-26.045,17.834-6.657,11.4-7.449,23.48-1.765,35.4,6.811,14.279,18.491,21.622,34.42,21.7C118.857,193.805,137.633,193.735,156.409,193.735ZM108.5,207.441a7.761,7.761,0,0,0-2.632,1.24c-3.3,3.134-6.6,6.3-9.606,9.71-2.209,2.512-1.935,5.031.146,6.9,2.161,1.945,4.994,1.789,7.343-.471,1.7-1.633,3.365-3.3,4.981-5.009a36.462,36.462,0,0,0,4.628-5.262C115.315,211.442,112.864,207.485,108.5,207.441Zm-31.87,42.68a7.939,7.939,0,0,0,2.785-1.183c3.5-3.368,6.956-6.788,10.192-10.4a4.436,4.436,0,0,0-.4-6.207,4.947,4.947,0,0,0-6.658-.323,118.7,118.7,0,0,0-9.774,9.871c-.963,1.133-1.182,3.447-.825,5.012C72.377,248.759,74.142,249.9,76.629,250.121Zm126.1-42.667a2.256,2.256,0,0,0-1.084.178,43.421,43.421,0,0,0-12.672,12.787c-1.084,1.762-.04,3.787,1.407,4.89,1.346,1.026,3.107,1.984,5.043.761a39.935,39.935,0,0,0,11.994-11.9C209.177,211.511,206.26,207.394,202.732,207.454Zm-18.185,28.579a5.122,5.122,0,0,0-3.021-4.615c-2.2-1.153-4.178-.406-5.821,1.182q-4.43,4.282-8.7,8.723a5.255,5.255,0,0,0-1.21,6.064c1.686,3.186,5.533,3.618,8.5.82,2.713-2.555,5.386-5.167,7.876-7.936A21.457,21.457,0,0,0,184.546,236.033ZM165.73,208.106a5.041,5.041,0,0,0-2.77-4.731,4.285,4.285,0,0,0-5.127.43c-3.485,3.275-6.973,6.568-10.185,10.1a4.961,4.961,0,0,0,.7,7c1.64,1.327,5.006,1.053,6.731-.641,2.991-2.937,5.986-5.874,8.856-8.927A14.82,14.82,0,0,0,165.73,208.106Zm-23.341,23.18c-.4-4.169-4.382-6.6-7.513-4.148-3.672,2.878-6.847,6.4-10.147,9.736a5.039,5.039,0,0,0-.21,7.149c1.826,1.828,5.036,1.7,7.159-.378,2.993-2.925,6-5.841,8.855-8.9A15.07,15.07,0,0,0,142.389,231.286Z" transform="translate(-61.367 -66.26)"/><path class="cls-2" d="M156.409,193.735c-18.776,0-37.552.071-56.328-.022-15.928-.078-27.609-7.421-34.42-21.7-5.683-11.915-4.891-23.993,1.765-35.4,5.813-9.957,14.775-15.67,26.045-17.834a9.5,9.5,0,0,1,1.134-.145c4.98-.344,5-.342,5.231-5.338.716-15.554,7.747-27.643,20-36.994,9.894-7.548,21.176-10.231,33.3-9.4a48.921,48.921,0,0,1,42.551,33.244c.58,1.677,1.415,2.12,3.279,1.467a34.983,34.983,0,0,1,7.762-1.716c13.056-1.4,24.93,1.81,35.209,9.988a47.235,47.235,0,0,1,13.98,18.617,45.18,45.18,0,0,1,3.581,18.225,45.97,45.97,0,0,1-11.852,31.29,46.486,46.486,0,0,1-30.8,15.608c-5.441.552-10.981.131-16.477.133q-21.982.009-43.963,0ZM189.484,116.1c-.384-1.559-.647-2.584-.886-3.614-.138-.593-.252-1.193-.351-1.794-1.829-11.038-7.071-20.2-16.207-26.57-13.072-9.112-27.173-10.3-41.386-2.828-11.743,6.174-18.61,16.135-20.792,29.346-.9,5.471.139,10.766.619,16.128.2,2.2-.229,2.606-2.506,2.294a53.329,53.329,0,0,0-6.336-.77c-12.654-.2-22.04,5.154-27.289,16.832-4.208,9.362-3.12,18.447,2.685,26.849,5.9,8.537,14.441,12.063,24.542,12.115,15.642.08,31.286.021,46.928.021,16.405,0,32.811.054,49.216-.027,6.85-.034,13.779.23,20.531-.683,10.079-1.364,18.121-6.71,24.176-14.941a34.676,34.676,0,0,0,7.092-18.976c.607-12.393-3.5-23-13.258-31.083-11.794-9.762-24.79-11.4-38.85-5.7C194.831,113.743,192.292,114.889,189.484,116.1Z" transform="translate(-61.367 -66.26)"/><path class="cls-2" d="M108.5,207.441c4.364.044,6.815,4,4.86,7.111a36.462,36.462,0,0,1-4.628,5.262c-1.616,1.712-3.285,3.377-4.981,5.009-2.348,2.26-5.181,2.416-7.343.471-2.081-1.873-2.354-4.392-.146-6.9,3-3.415,6.3-6.576,9.606-9.71A7.761,7.761,0,0,1,108.5,207.441Z" transform="translate(-61.367 -66.26)"/><path class="cls-2" d="M76.629,250.121c-2.487-.22-4.252-1.362-4.678-3.232-.356-1.565-.138-3.879.825-5.012a118.7,118.7,0,0,1,9.774-9.871,4.947,4.947,0,0,1,6.658.323,4.436,4.436,0,0,1,.4,6.207c-3.236,3.614-6.7,7.034-10.192,10.4A7.939,7.939,0,0,1,76.629,250.121Z" transform="translate(-61.367 -66.26)"/><path class="cls-2" d="M202.732,207.454c3.528-.06,6.446,4.057,4.689,6.715a39.935,39.935,0,0,1-11.994,11.9c-1.936,1.223-3.7.265-5.043-.761-1.447-1.1-2.491-3.127-1.407-4.89a43.421,43.421,0,0,1,12.672-12.787A2.256,2.256,0,0,1,202.732,207.454Z" transform="translate(-61.367 -66.26)"/><path class="cls-2" d="M184.546,236.033a21.457,21.457,0,0,1-2.375,4.24c-2.489,2.768-5.163,5.381-7.876,7.936-2.972,2.8-6.819,2.367-8.5-.82a5.255,5.255,0,0,1,1.21-6.064q4.265-4.446,8.7-8.723c1.643-1.588,3.617-2.335,5.821-1.182A5.122,5.122,0,0,1,184.546,236.033Z" transform="translate(-61.367 -66.26)"/><path class="cls-2" d="M165.73,208.106a14.82,14.82,0,0,1-1.794,3.23c-2.87,3.053-5.865,5.99-8.856,8.927-1.725,1.694-5.091,1.968-6.731.641a4.961,4.961,0,0,1-.7-7c3.212-3.535,6.7-6.828,10.185-10.1a4.285,4.285,0,0,1,5.127-.43A5.041,5.041,0,0,1,165.73,208.106Z" transform="translate(-61.367 -66.26)"/><path class="cls-2" d="M142.389,231.286a15.07,15.07,0,0,1-1.856,3.463c-2.856,3.055-5.863,5.972-8.855,8.9-2.123,2.075-5.333,2.206-7.159.378a5.039,5.039,0,0,1,.21-7.149c3.3-3.334,6.475-6.858,10.147-9.736C138.008,224.684,141.993,227.117,142.389,231.286Z" transform="translate(-61.367 -66.26)"/><path class="cls-2" d="M189.484,116.1c2.809-1.208,5.348-2.355,7.928-3.4,14.059-5.7,27.055-4.061,38.85,5.7,9.761,8.08,13.865,18.689,13.258,31.083a34.676,34.676,0,0,1-7.092,18.976c-6.055,8.23-14.1,13.577-24.176,14.941-6.752.913-13.68.649-20.531.683-16.405.081-32.811.026-49.216.027-15.643,0-31.286.059-46.928-.021-10.1-.052-18.644-3.578-24.542-12.115-5.805-8.4-6.893-17.487-2.685-26.849,5.249-11.678,14.635-17.034,27.289-16.832a53.329,53.329,0,0,1,6.336.77c2.277.313,2.7-.1,2.506-2.294-.48-5.362-1.523-10.657-.619-16.128,2.182-13.211,9.049-23.172,20.792-29.346,14.213-7.472,28.314-6.284,41.386,2.828,9.135,6.368,14.377,15.532,16.207,26.57.1.6.214,1.2.351,1.794C188.837,113.514,189.1,114.539,189.484,116.1Z" transform="translate(-61.367 -66.26)"/></svg>