<svg id="Layer_1" data-name="Layer 1" xmlns="http://www.w3.org/2000/svg" viewBox="0 0 205.645 133.547"><defs><style>.cls-1{fill:#242424;}</style></defs><title>wind_Icon</title><path class="cls-1" d="M188.377,171.8c18.911,0,36.642-.235,54.361.123,6.5.131,11.75,6.173,12.362,12.551a13.722,13.722,0,0,1-9.693,14.653c-8.509,2.818-16.414-2.736-18.419-12.624-.276-1.362-2.157-2.4-3.3-3.585-.892,1.371-2.551,2.739-2.555,4.113-.031,10.63,10.8,20.053,21.57,19.047,11.492-1.072,20.238-11.588,18.626-22.393-1.63-10.923-9.7-18.022-20.855-18.046q-44.2-.094-88.409-.024-34.453,0-68.907.01c-2.395,0-5.566-.57-5.686,2.938-.122,3.59,3.028,3.122,5.451,3.136,4.189.024,8.379.015,12.568.015,24.7,0,49.405-.1,74.107.044a24.314,24.314,0,0,1,23.793,21.108c1.377,11.331-6.557,23.023-17.443,25.7-12.151,2.991-23.548-3.007-28.143-15.021-.963-2.519-.918-5.425-1.894-7.938-.488-1.256-2.229-2.027-3.4-3.017-.9,1.136-2.363,2.183-2.558,3.429a15.894,15.894,0,0,0,.654,5.542c3.4,15.833,18.652,26.318,34.272,23.6a30.067,30.067,0,0,0,24.5-33.959C198.324,183.783,194.322,177.841,188.377,171.8Zm-58.7-19.164c22.542,0,45.084.042,67.626-.014,16.169-.04,29.746-13.28,30.086-29.2.339-15.878-12.336-29.891-27.655-30.573-16.877-.751-30.957,11.447-31.982,27.982-.1,1.544,1.231,4.2,2.458,4.6,2.9.93,3.5-1.641,3.683-3.93a25.151,25.151,0,0,1,6.439-14.83,23.047,23.047,0,0,1,29.189-4.471c9.472,5.72,13.973,17.8,10.349,27.766-3.826,10.525-12.437,16.57-23.917,16.578q-66.759.047-133.518.016c-1.3,0-2.752-.321-3.858.151-1.137.485-2.827,1.936-2.686,2.651.238,1.206,1.583,2.39,2.747,3.144.721.467,1.968.137,2.979.137Q95.644,152.644,129.674,152.633Zm-27.962-19.951c9.391,0,18.782.043,28.173-.011a20.524,20.524,0,0,0,20.477-19c.828-10.06-6.688-19.491-17.016-21.352-11.211-2.02-22.8,7.245-23.211,18.544-.077,2.129-.028,4.566,2.755,4.3,1.2-.115,2.44-2.11,3.227-3.5.682-1.2.6-2.814,1.114-4.146a13.785,13.785,0,0,1,25.945-.047c3.71,9.208-3.473,19.044-14.139,19.1-18.926.093-37.852.028-56.778.017-2.249,0-4.686-.081-4.693,3.027s2.418,3.069,4.674,3.067Q86.976,132.667,101.712,132.682Z" transform="translate(-55.879 -92.043)"/><path class="cls-1" d="M188.377,171.8c5.946,6.044,9.947,11.985,11,19.405a30.067,30.067,0,0,1-24.5,33.959c-15.621,2.718-30.876-7.767-34.272-23.6a15.894,15.894,0,0,1-.654-5.542c.195-1.246,1.66-2.293,2.558-3.429,1.174.99,2.915,1.76,3.4,3.017.975,2.512.931,5.418,1.894,7.938,4.595,12.015,15.991,18.013,28.143,15.021,10.886-2.68,18.82-14.371,17.443-25.7A24.314,24.314,0,0,0,169.6,171.756c-24.7-.142-49.4-.043-74.107-.044-4.189,0-8.379.009-12.568-.015-2.423-.014-5.573.454-5.451-3.136.12-3.508,3.291-2.937,5.686-2.938q34.453-.024,68.907-.01,44.2,0,88.409.024c11.155.024,19.225,7.123,20.855,18.046,1.613,10.806-7.133,21.321-18.626,22.393-10.772,1.005-21.6-8.417-21.57-19.047,0-1.373,1.663-2.742,2.555-4.113,1.138,1.187,3.019,2.223,3.3,3.585,2.006,9.888,9.91,15.442,18.419,12.624a13.722,13.722,0,0,0,9.693-14.653c-.612-6.378-5.867-12.42-12.362-12.551C225.019,171.563,207.288,171.8,188.377,171.8Z" transform="translate(-55.879 -92.043)"/><path class="cls-1" d="M129.674,152.638q-34.03.007-68.06,0c-1.011,0-2.258.329-2.979-.137-1.164-.753-2.51-1.938-2.747-3.144-.141-.715,1.549-2.165,2.686-2.651,1.106-.472,2.558-.151,3.858-.151q66.759,0,133.518-.016c11.48-.008,20.091-6.053,23.917-16.578,3.624-9.97-.876-22.046-10.349-27.766a23.047,23.047,0,0,0-29.189,4.471,25.151,25.151,0,0,0-6.439,14.83c-.188,2.29-.786,4.861-3.683,3.93-1.227-.394-2.554-3.053-2.458-4.6,1.024-16.535,15.105-28.734,31.982-27.982,15.319.682,27.994,14.695,27.655,30.573-.34,15.917-13.917,29.157-30.086,29.2C174.758,152.675,152.216,152.633,129.674,152.638Z" transform="translate(-55.879 -92.043)"/><path class="cls-1" d="M101.712,132.68q-14.736,0-29.473,0c-2.256,0-4.681.028-4.674-3.067s2.444-3.028,4.693-3.027c18.926.011,37.853.076,56.778-.017,10.666-.052,17.849-9.889,14.139-19.1a13.785,13.785,0,0,0-25.945.047c-.514,1.331-.432,2.941-1.114,4.146-.786,1.388-2.028,3.383-3.227,3.5-2.782.266-2.832-2.171-2.755-4.3.41-11.3,12-20.564,23.211-18.544,10.328,1.861,17.843,11.291,17.016,21.352a20.524,20.524,0,0,1-20.477,19C120.494,132.725,111.1,132.682,101.712,132.68Z" transform="translate(-55.879 -92.043)"/></svg>