<?xml version="1.0" encoding="utf-8"?>
<!-- Generator: Adobe Illustrator 21.0.2, SVG Export Plug-In . SVG Version: 6.00 Build 0)  -->
<svg version="1.1" id="Layer_1" xmlns="http://www.w3.org/2000/svg" xmlns:xlink="http://www.w3.org/1999/xlink" x="0px" y="0px"
	 viewBox="0 0 205.6 133.5" style="enable-background:new 0 0 205.6 133.5;" xml:space="preserve">
<style type="text/css">
	.st0{fill:#242424;}
</style>
<title>wind_Icon</title>
<path class="st0" d="M132.5,79.8c18.9,0,36.6-0.2,54.4,0.1c6.5,0.1,11.8,6.2,12.4,12.6c0.7,6.6-3.3,12.7-9.7,14.7
	c-8.5,2.8-16.4-2.7-18.4-12.6c-0.3-1.4-2.2-2.4-3.3-3.6c-0.9,1.4-2.6,2.7-2.6,4.1c0,10.6,10.8,20.1,21.6,19
	c11.5-1.1,20.2-11.6,18.6-22.4c-1.6-10.9-9.7-18-20.9-18c-29.5-0.1-58.9-0.1-88.4,0c-23,0-45.9,0-68.9,0c-2.4,0-5.6-0.6-5.7,2.9
	c-0.1,3.6,3,3.1,5.5,3.1c4.2,0,8.4,0,12.6,0c24.7,0,49.4-0.1,74.1,0c12.1,0.2,22.2,9.1,23.8,21.1c1.4,11.3-6.6,23-17.4,25.7
	c-12.2,3-23.5-3-28.1-15c-1-2.5-0.9-5.4-1.9-7.9c-0.5-1.3-2.2-2-3.4-3c-0.9,1.1-2.4,2.2-2.6,3.4c-0.1,1.9,0.1,3.7,0.7,5.5
	c3.4,15.8,18.7,26.3,34.3,23.6c16-2.8,26.9-17.9,24.5-34C142.4,91.7,138.4,85.8,132.5,79.8z M73.8,60.6c22.5,0,45.1,0,67.6,0
	c16.2,0,29.7-13.3,30.1-29.2c0.3-15.9-12.3-29.9-27.7-30.6c-16.9-0.8-31,11.4-32,28c-0.1,1.5,1.2,4.2,2.5,4.6
	c2.9,0.9,3.5-1.6,3.7-3.9c0.5-5.5,2.7-10.7,6.4-14.8c7.4-8.3,19.7-10.2,29.2-4.5s14,17.8,10.3,27.8c-3.8,10.5-12.4,16.6-23.9,16.6
	c-44.5,0-89,0-133.5,0c-1.3,0-2.8-0.3-3.9,0.2s-2.8,1.9-2.7,2.7c0.2,1.2,1.6,2.4,2.7,3.1c0.7,0.5,2,0.1,3,0.1
	C28.4,60.6,51.1,60.6,73.8,60.6L73.8,60.6z M45.8,40.6c9.4,0,18.8,0,28.2,0c10.7,0,19.7-8.3,20.5-19c0.8-10.1-6.7-19.5-17-21.4
	c-11.2-2-22.8,7.2-23.2,18.5c-0.1,2.1,0,4.6,2.8,4.3c1.2-0.1,2.4-2.1,3.2-3.5c0.7-1.2,0.6-2.8,1.1-4.1C63.9,8.3,71.8,4.6,79,7.1
	c3.9,1.4,6.9,4.4,8.3,8.3c3.7,9.2-3.5,19-14.1,19.1c-18.9,0.1-37.9,0-56.8,0c-2.2,0-4.7-0.1-4.7,3s2.4,3.1,4.7,3.1
	C26.2,40.6,36,40.6,45.8,40.6L45.8,40.6z"/>
<path class="st0" d="M132.5,79.8c5.9,6,9.9,12,11,19.4c2.4,16.1-8.5,31.1-24.5,34c-15.6,2.7-30.9-7.8-34.3-23.6
	c-0.5-1.8-0.8-3.7-0.7-5.5c0.2-1.2,1.7-2.3,2.6-3.4c1.2,1,2.9,1.8,3.4,3c1,2.5,0.9,5.4,1.9,7.9c4.6,12,16,18,28.1,15
	c10.9-2.7,18.8-14.4,17.4-25.7c-1.6-12-11.7-21-23.8-21.1c-24.7-0.1-49.4,0-74.1,0c-4.2,0-8.4,0-12.6,0c-2.4,0-5.6,0.5-5.5-3.1
	c0.1-3.5,3.3-2.9,5.7-2.9c23,0,45.9,0,68.9,0c29.5,0,58.9,0,88.4,0c11.2,0,19.2,7.1,20.9,18c1.6,10.8-7.1,21.3-18.6,22.4
	c-10.8,1-21.6-8.4-21.6-19c0-1.4,1.7-2.7,2.6-4.1c1.1,1.2,3,2.2,3.3,3.6c2,9.9,9.9,15.4,18.4,12.6c6.3-1.9,10.4-8.1,9.7-14.7
	c-0.6-6.4-5.9-12.4-12.4-12.6C169.1,79.5,151.4,79.8,132.5,79.8z"/>
<path class="st0" d="M73.8,60.6c-22.7,0-45.4,0-68.1,0c-1,0-2.3,0.3-3-0.1c-1.2-0.8-2.5-1.9-2.7-3.1c-0.1-0.7,1.5-2.2,2.7-2.7
	c1.1-0.5,2.6-0.2,3.9-0.2c44.5,0,89,0,133.5,0c11.5,0,20.1-6.1,23.9-16.6c3.6-10-0.9-22-10.3-27.8c-9.5-5.8-21.8-3.9-29.2,4.5
	c-3.7,4.1-6,9.3-6.4,14.8c-0.2,2.3-0.8,4.9-3.7,3.9c-1.2-0.4-2.6-3.1-2.5-4.6c1-16.5,15.1-28.7,32-28c15.3,0.7,28,14.7,27.7,30.6
	s-13.9,29.2-30.1,29.2C118.9,60.6,96.3,60.6,73.8,60.6z"/>
<path class="st0" d="M45.8,40.6c-9.8,0-19.6,0-29.5,0c-2.3,0-4.7,0-4.7-3.1s2.4-3,4.7-3c18.9,0,37.9,0.1,56.8,0
	c10.7-0.1,17.8-9.9,14.1-19.1C84.7,8.3,76.8,4.6,69.6,7.1c-3.9,1.4-6.9,4.5-8.3,8.3c-0.5,1.3-0.4,2.9-1.1,4.1
	c-0.8,1.4-2,3.4-3.2,3.5c-2.8,0.3-2.8-2.2-2.8-4.3c0.4-11.3,12-20.6,23.2-18.5c10.3,1.9,17.8,11.3,17,21.4c-0.8,10.7-9.7,19-20.5,19
	C64.6,40.7,55.2,40.6,45.8,40.6z"/>
</svg>
